<?xml version="1.0" encoding="UTF-8" standalone="no"?>
<!DOCTYPE svg PUBLIC "-//W3C//DTD SVG 1.1//EN" "http://www.w3.org/Graphics/SVG/1.1/DTD/svg11.dtd">
<svg width="100%" height="100%" viewBox="0 0 2550 2550" version="1.1" xmlns="http://www.w3.org/2000/svg" xmlns:xlink="http://www.w3.org/1999/xlink" xml:space="preserve" xmlns:serif="http://www.serif.com/" style="fill-rule:evenodd;clip-rule:evenodd;stroke-linejoin:round;stroke-miterlimit:2;">
    <g transform="matrix(2.18028,0,0,2.18028,-398.662,-1113.38)">
        <path d="M205.782,1680.23C193.116,1680.23 182.849,1669.97 182.849,1657.3L182.849,533.592C182.849,520.926 193.116,510.659 205.782,510.659L1329.49,510.659C1342.15,510.659 1352.42,520.926 1352.42,533.592L1352.42,721.641C1352.42,734.306 1342.15,744.574 1329.49,744.574L439.696,744.574C427.031,744.574 416.764,754.841 416.764,767.506L416.764,1657.3C416.764,1669.97 406.496,1680.23 393.831,1680.23L205.782,1680.23Z" style="fill:rgb(59,71,198);"/>
    </g>
    <g transform="matrix(2.18028,0,0,2.18028,621.338,-93.3803)">
        <path d="M884.593,1189.47C884.593,1202.14 874.326,1212.4 861.66,1212.4L205.782,1212.4C193.116,1212.4 182.849,1202.14 182.849,1189.47L182.849,1001.42C182.849,988.756 193.116,978.488 205.782,978.488L627.745,978.488C633.828,978.488 639.661,976.072 643.961,971.772C648.262,967.471 650.678,961.638 650.678,955.556L650.678,533.592C650.678,520.926 660.946,510.659 673.611,510.659L861.66,510.659C874.326,510.659 884.593,520.926 884.593,533.592L884.593,1189.47ZM393.831,510.659C406.496,510.659 416.764,520.926 416.764,533.592L416.764,721.641C416.764,734.306 406.496,744.574 393.831,744.574L205.782,744.574C193.116,744.574 182.849,734.306 182.849,721.641L182.849,533.592C182.849,520.926 193.116,510.659 205.782,510.659L393.831,510.659Z" style="fill:rgb(118,148,228);"/>
    </g>
</svg>
